<svg width="280" height="68" viewBox="0 0 280 68" fill="none" xmlns="http://www.w3.org/2000/svg">
<path d="M259.72 63.172C258.269 66.3907 256.478 68 254.348 68C253.396 68 252.285 67.8413 251.016 67.524V66.98C252.058 67.252 252.988 67.388 253.804 67.388C256.116 67.388 257.884 65.9827 259.108 63.172L264.82 51H264.752L252.104 17H256.864L267.404 45.356L277.808 23.8C278.352 22.848 278.624 21.7147 278.624 20.4C278.624 19.0853 278.261 18.088 277.536 17.408L277.944 17C278.125 17.0907 278.352 17.3627 278.624 17.816C278.941 18.2693 279.122 18.6773 279.168 19.04C279.258 19.4027 279.304 19.7427 279.304 20.06C279.304 21.284 279.032 22.5307 278.488 23.8L265.432 51L259.72 63.172Z" fill="black"/>
<path d="M222.71 34.408C222.71 40.0293 223.685 44.1547 225.634 46.784C227.629 49.4133 230.235 50.728 233.454 50.728C237.987 50.728 242.022 50.048 245.558 48.688L245.762 49.164C242.135 50.5693 238.033 51.272 233.454 51.272C228.921 51.272 225.226 49.912 222.37 47.192C219.514 44.472 218.086 40.2787 218.086 34.612C218.086 28.9453 219.582 24.548 222.574 21.42C225.566 18.292 229.374 16.728 233.998 16.728C237.715 16.728 240.843 17.8387 243.382 20.06C245.921 22.2813 247.19 25.568 247.19 29.92C247.19 30.1467 247.19 30.3733 247.19 30.6H222.914C222.778 31.824 222.71 33.0933 222.71 34.408ZM242.566 30.056C242.521 25.704 241.682 22.4853 240.05 20.4C238.418 18.3147 236.31 17.272 233.726 17.272C231.142 17.272 228.83 18.4053 226.79 20.672C224.795 22.9387 223.526 26.0667 222.982 30.056H242.566Z" fill="black"/>
<path d="M214.238 51C210.248 51 207.732 49.9573 206.69 47.872C206.463 47.4187 206.35 47.0107 206.35 46.648V0.0680008H211.11V46.172C211.11 47.4867 211.359 48.5067 211.858 49.232C212.402 49.912 212.946 50.2747 213.49 50.32L214.238 50.456H216.346V51H214.238Z" fill="black"/>
<path d="M198.367 51C194.377 51 191.861 49.9573 190.819 47.872C190.592 47.4187 190.479 47.0107 190.479 46.648V0.0680008H195.239V46.172C195.239 47.4867 195.488 48.5067 195.987 49.232C196.531 49.912 197.075 50.2747 197.619 50.32L198.367 50.456H200.475V51H198.367Z" fill="black"/>
<path d="M182.553 51C179.47 51 177.362 50.4107 176.229 49.232C175.186 48.2347 174.665 47.3733 174.665 46.648V45.22C172.444 49.2547 168.885 51.272 163.989 51.272C158.277 51.272 155.036 48.688 154.265 43.52C154.174 42.976 154.129 42.432 154.129 41.888C154.129 41.2987 154.22 40.664 154.401 39.984C154.582 39.304 155.104 38.556 155.965 37.74C157.688 36.108 161.473 35.1107 167.321 34.748C168.772 34.612 170.109 34.544 171.333 34.544C172.557 34.544 173.668 34.5893 174.665 34.68V23.392C174.574 23.3467 174.574 23.1427 174.665 22.78C174.756 22.372 174.665 21.8733 174.393 21.284C174.166 20.6493 173.849 20.0373 173.441 19.448C173.033 18.8587 172.308 18.36 171.265 17.952C170.222 17.4987 168.862 17.272 167.185 17.272C165.508 17.272 163.536 17.5893 161.269 18.224C159.048 18.8133 157.416 19.4027 156.373 19.992L156.101 19.516C160.136 17.6573 164.238 16.728 168.409 16.728C173.078 16.728 176.161 17.5667 177.657 19.244C178.836 20.5587 179.425 21.9413 179.425 23.392V46.172C179.425 47.4867 179.674 48.5067 180.173 49.232C180.717 49.912 181.261 50.2747 181.805 50.32L182.553 50.456H184.661V51H182.553ZM165.077 50.728C167.48 50.728 169.633 49.912 171.537 48.28C173.486 46.6027 174.529 44.9933 174.665 43.452V35.224C173.441 35.1333 172.194 35.088 170.925 35.088C169.701 35.088 168.477 35.156 167.253 35.292C163.808 35.7 161.564 36.4707 160.521 37.604C159.478 38.7373 158.957 40.3013 158.957 42.296C158.957 42.6587 158.98 43.0667 159.025 43.52C159.433 48.3253 161.45 50.728 165.077 50.728Z" fill="black"/>
<path d="M150.486 3.39999C151.347 4.26133 151.778 5.372 151.778 6.732C151.778 7.86533 151.529 9.02133 151.03 10.2L133.622 51L132.874 51.34L115.738 3.39999H121.518L135.73 43.656L150.214 10.2C150.713 9.06666 150.962 7.888 150.962 6.664C150.962 5.44 150.622 4.488 149.942 3.808L150.486 3.39999Z" fill="black"/>
<path d="M71.8542 0V33.864L86.8142 17H87.4942L76.4102 29.512L91.0302 51H86.2702L73.6902 32.504L71.8542 34.612V51H67.0942V0H71.8542Z" fill="black"/>
<path d="M60.5072 51C56.5179 51 54.0019 49.9573 52.9592 47.872C52.7326 47.4187 52.6192 47.0107 52.6192 46.648V0.0680008H57.3792V46.172C57.3792 47.4867 57.6286 48.5067 58.1272 49.232C58.6712 49.912 59.2152 50.2747 59.7592 50.32L60.5072 50.456H62.6152V51H60.5072Z" fill="black"/>
<path d="M42.2721 51C40.4134 51 38.9854 50.592 37.9881 49.776C37.0361 48.96 36.5374 48.144 36.4921 47.328L36.4241 46.172V17H41.1841V46.172C41.1841 47.4867 41.4334 48.5067 41.9321 49.232C42.4761 49.912 42.9974 50.2747 43.4961 50.32L44.3121 50.456H46.4201V51H42.2721ZM36.8321 9.384C36.2881 8.84 36.0161 8.16 36.0161 7.344C36.0161 6.528 36.2881 5.848 36.8321 5.304C37.3761 4.71467 38.0561 4.42 38.8721 4.42C39.6881 4.42 40.3681 4.71467 40.9121 5.304C41.5014 5.848 41.7961 6.528 41.7961 7.344C41.7961 8.16 41.5014 8.84 40.9121 9.384C40.3681 9.928 39.6881 10.2 38.8721 10.2C38.0561 10.2 37.3761 9.928 36.8321 9.384Z" fill="black"/>
<path d="M27.472 6.256C23.3467 4.66933 19.448 3.876 15.776 3.876C12.1493 3.876 9.316 4.64667 7.276 6.188C5.236 7.72933 4.216 9.86 4.216 12.58C4.216 15.8893 5.93867 18.4507 9.384 20.264C10.9253 21.0347 12.6027 21.76 14.416 22.44C16.2747 23.0747 18.1333 23.8 19.992 24.616C21.8507 25.432 23.5507 26.3613 25.092 27.404C26.6333 28.4467 27.88 29.8973 28.832 31.756C29.784 33.5693 30.26 35.904 30.26 38.76C30.26 41.5707 29.4667 43.9733 27.88 45.968C26.2933 47.9627 24.3667 49.3227 22.1 50.048C19.8787 50.728 17.272 51.068 14.28 51.068C8.704 51.068 3.944 49.6853 0 46.92L0.34 46.376C1.836 47.5547 3.76267 48.5293 6.12 49.3C8.52267 50.0253 10.9707 50.388 13.464 50.388C17.136 50.388 20.264 49.5493 22.848 47.872C25.4773 46.1493 26.792 43.6333 26.792 40.324C26.792 36.6973 25.0693 33.864 21.624 31.824C20.0827 30.9173 18.3827 30.0787 16.524 29.308C14.7107 28.5373 12.8747 27.744 11.016 26.928C9.15733 26.0667 7.45733 25.1147 5.916 24.072C2.47067 21.8053 0.748 18.5867 0.748 14.416C0.748 11.1067 1.85867 8.432 4.08 6.392C6.30133 4.30667 9.63333 3.264 14.076 3.264C18.564 3.264 23.12 4.03467 27.744 5.576L27.472 6.256Z" fill="black"/>
</svg>
